<svg width="125" height="62" viewBox="0 0 125 62" fill="none" xmlns="http://www.w3.org/2000/svg">
<path d="M123.306 9.38274C118.546 3.50048 103.74 1.65296 87.1976 8.74342C84.9253 9.69096 82.7175 10.7292 80.5837 11.854C78.4429 5.08545 71.2516 0.0976562 62.7398 0.0976562C55.6772 0.0976562 49.5297 3.53387 46.4119 8.57359C47.633 9.20369 48.8051 9.8889 49.9222 10.6258C52.211 6.37007 57.0939 3.42484 62.7398 3.42484C69.883 3.42484 75.8103 8.13967 76.7973 14.2533C74.4229 16.049 72.5773 18.1182 69.6729 21.3735C69.2111 21.8927 68.7158 22.4415 68.1905 23.0289C67.3707 23.2437 66.5849 23.5301 65.849 23.8826C64.4323 24.5394 63.322 25.5279 62.6776 26.7055C62.6583 26.7425 62.6395 26.7752 62.6248 26.8123C62.6107 26.7752 62.5925 26.7425 62.5732 26.7055C62.5732 26.7055 62.5732 26.6943 62.5638 26.6906C62.0579 25.8344 61.3226 25.0717 60.4065 24.453C59.4904 23.8344 58.4147 23.3742 57.2509 23.1031C57.094 23.0586 56.9322 23.0141 56.7647 22.9733C56.2545 22.4082 55.7825 21.8763 55.3345 21.3735C53.3524 18.9676 51.1128 16.695 48.6394 14.5797C47.4651 13.6599 46.1904 12.8205 44.8296 12.0706C42.5735 10.8553 40.2281 9.7426 37.8053 8.73826C21.2629 1.64777 6.45704 3.4953 1.69758 9.37758C-1.90265 13.8276 1.29746 20.3322 2.83768 22.9221C5.88943 28.0397 10.7437 32.162 16.3082 34.39C16.7901 33.342 17.4289 32.3413 18.2112 31.4084C13.514 29.5134 9.37957 25.966 6.73756 21.5293C4.7273 18.1561 3.30483 13.6519 5.33612 11.1457C8.97371 6.65264 22.0498 5.78486 35.7309 11.6478C38.7567 12.8398 41.6124 14.2752 44.2505 15.9303C44.3127 15.9711 44.3739 16.0111 44.4314 16.0556C46.6723 17.5998 48.3178 19.3628 50.9885 22.3518C50.6976 22.3518 50.4066 22.3555 50.1155 22.3629C48.633 22.4016 47.1558 22.5213 45.695 22.7211C42.7045 23.1335 39.7814 23.7988 36.9782 24.7052C33.2617 25.8671 29.7951 27.4604 26.6972 29.4304C25.7003 30.0783 24.7648 30.781 23.8982 31.533C23.455 31.9209 23.0492 32.3089 22.6873 32.693C21.794 33.6097 21.0923 34.6297 20.6082 35.7154C20.0653 36.8826 19.9742 38.1472 20.3459 39.354C20.4276 39.6154 20.5359 39.8713 20.6694 40.1195C22.3772 43.3184 30.1309 46.2525 36.4344 46.2525C36.9016 46.2525 37.3601 46.2339 37.8081 46.2005C39.9661 46.0942 42.0241 45.4574 43.6828 44.3826C44.6356 43.7326 45.3967 42.9312 45.9141 42.033C46.2888 43.5288 46.8446 44.9939 47.5741 46.4089C51.8319 54.7106 60.9452 60.149 61.4458 60.4454L62.7428 61.2059L64.0397 60.4454C64.5356 60.1531 73.4623 54.8255 77.7733 46.6752C76.4863 45.7023 75.464 44.5388 74.7686 43.2538C74.4353 44.1246 74.0327 44.9784 73.5626 45.8104C66.3783 46.4947 59.1131 46.4947 51.9286 45.8104C51.36 44.8064 50.8911 43.7702 50.5262 42.7109C50.0089 41.231 49.7351 39.7064 49.7116 38.1733C50.5032 38.2697 51.3179 38.3543 52.1478 38.4322C59.038 39.0356 65.9928 39.048 72.8866 38.4692C72.5509 37.7791 72.0344 37.1503 71.3701 36.6225C70.7052 36.0947 69.9065 35.6792 69.0245 35.4024C66.9869 35.5099 64.8754 35.5685 62.7434 35.5685C60.4787 35.5685 58.2369 35.5025 56.0821 35.3802H56.063C53.869 35.2548 51.7716 35.0664 49.8255 34.8224C49.8255 34.7341 49.8351 34.6488 49.8398 34.5636C52.2579 32.3177 55.3862 31.7081 57.9181 31.2126C59.9875 30.8062 61.7709 30.4591 62.5961 29.1915C62.6049 29.173 62.619 29.1545 62.6289 29.1367C62.6383 29.1545 62.6524 29.173 62.6624 29.1915C63.3736 30.293 64.8179 30.6994 66.5391 31.0539C66.8015 31.1058 67.0685 31.1607 67.3402 31.2126C67.6125 31.2646 67.9147 31.3239 68.2087 31.3862C70.2058 31.7261 72.0908 32.3827 73.7445 33.3146C74.4693 33.7504 75.1189 34.2569 75.6759 34.8217C76.592 35.7557 77.3056 36.799 77.7886 37.9107C77.8032 37.9471 77.8214 37.9849 77.8408 38.0212C78.153 38.7342 78.4047 39.4624 78.5937 40.2011C78.7774 40.9268 79.0826 41.6309 79.5016 42.2955C80.9552 44.5599 83.6982 45.9231 87.4405 46.2005C87.8889 46.2339 88.3472 46.2525 88.8144 46.2525C95.1178 46.2525 102.872 43.3184 104.578 40.1195C105.3 38.6908 105.315 37.1063 104.622 35.6694C104.388 35.1366 104.093 34.6211 103.74 34.1289C103.382 33.6163 102.975 33.1248 102.524 32.6582C102.171 32.2873 101.78 31.9083 101.351 31.5353C97.6923 28.5395 93.224 26.2078 88.2663 24.7073C84.0374 23.293 79.511 22.4887 74.9094 22.334C74.6225 22.3266 74.3273 22.3266 74.0409 22.3266C76.6976 19.3562 78.3373 17.6006 80.5697 16.0601C80.7839 15.9118 81.0033 15.7634 81.2275 15.624C83.7463 14.1148 86.4376 12.7867 89.268 11.656C102.945 5.79301 116.029 6.6608 119.663 11.1539C121.694 13.6623 120.269 18.1628 118.26 21.5374C115.62 25.9741 111.485 29.5216 106.783 31.4166C107.174 31.8836 107.53 32.3672 107.851 32.8651C108.174 33.3616 108.454 33.8736 108.691 34.3982C114.25 32.1731 119.11 28.0471 122.157 22.9303C123.705 20.3374 126.905 13.8306 123.306 9.38274ZM62.7398 49.656C65.6295 49.656 68.4429 49.5596 71.1272 49.3675C68.7979 52.1856 65.9752 54.7396 62.7398 56.9563C59.5074 54.7384 56.6863 52.1846 54.3572 49.3675C57.0413 49.5581 59.8496 49.6545 62.7398 49.6545V49.656ZM37.3946 42.8948C32.9979 43.2197 27.9914 41.4427 25.7457 39.9096C25.2803 39.6243 24.9009 39.2636 24.6344 38.8527C24.4573 38.4353 24.3901 37.9946 24.4368 37.5567C24.4836 37.1189 24.6431 36.6927 24.9062 36.3035C25.4627 35.3661 26.2056 34.5022 27.1079 33.7432C27.4228 33.4695 27.757 33.1959 28.1092 32.9274C28.9946 32.2559 29.943 31.6361 30.9465 31.0732C33.3226 29.741 35.8974 28.6355 38.6151 27.7809C41.7495 26.7539 45.0575 26.0796 48.4384 25.7783C49.262 25.7102 50.0896 25.6758 50.9177 25.6752C51.3513 25.6752 51.7792 25.6864 52.1957 25.7086L52.3957 25.7198C54.2363 25.7368 56.0312 26.1654 57.5649 26.9539C57.7229 27.2147 57.8613 27.4824 57.9794 27.7557C57.6175 27.8365 57.2136 27.9181 56.8689 27.9841C53.9072 28.5641 49.1391 29.4957 45.7438 33.2419L45.6624 33.2344C45.6566 33.2689 45.6535 33.3036 45.6528 33.3383C45.6528 33.3383 45.6528 33.3383 45.6528 33.345C44.0616 35.22 42.9766 37.3251 42.4633 39.5336C41.9157 41.585 40.2606 42.6827 37.3946 42.8934V42.8948ZM86.6348 27.7831C90.5344 28.9752 94.1078 30.729 97.1647 32.9519C97.508 33.2107 97.8349 33.477 98.1371 33.7432C98.4951 34.057 98.8197 34.3633 99.106 34.6704C99.5937 35.1719 100.006 35.7148 100.336 36.2887C100.602 36.6798 100.763 37.1084 100.811 37.5489C100.858 37.9894 100.791 38.4328 100.612 38.8527C99.7686 40.434 93.3373 43.3028 87.8466 42.8948C84.9816 42.6842 83.3267 41.5865 82.7927 39.5395C82.4529 38.1913 81.9253 36.8758 81.2187 35.616C81.2187 35.616 81.2187 35.6086 81.2187 35.6049C81.2187 35.6012 81.2187 35.6049 81.2187 35.5975C80.9224 35.0789 80.5861 34.5744 80.2128 34.0867C76.8026 29.6366 71.5626 28.6108 68.3913 27.99C68.2956 27.9715 68.1999 27.95 68.0908 27.9315L67.552 27.8202C67.3038 27.7682 67.0655 27.7171 66.856 27.6652C66.9828 27.5079 67.1319 27.3616 67.2991 27.229C67.3531 27.1833 67.4106 27.1402 67.4716 27.1C68.6201 26.2908 70.6659 25.7843 73.3109 25.6849C77.8942 25.6391 82.4376 26.354 86.6348 27.7816V27.7831Z" fill="#FBBD00"/>
</svg>
